<svg width="24" height="23" viewBox="0 0 24 23" fill="none" xmlns="http://www.w3.org/2000/svg">
<g id="Award 1">
<g id="Vector">
<path fill-rule="evenodd" clip-rule="evenodd" d="M14.0232 5.75812C13.3907 3.74729 10.6048 3.74729 9.97234 5.75812C9.88217 6.0448 9.6337 6.21631 9.3778 6.21631C7.26874 6.21631 6.50567 8.93003 8.11799 10.1401C8.34017 10.3068 8.44443 10.6157 8.35312 10.906C8.04323 11.8912 8.44069 12.8128 9.11873 13.3217C9.80028 13.8332 10.8014 13.9498 11.6383 13.3217C11.8544 13.1595 12.1412 13.1595 12.3572 13.3217C13.1941 13.9498 14.1952 13.8332 14.8768 13.3217C15.5548 12.8128 15.9523 11.8912 15.6424 10.906C15.5511 10.6157 15.6554 10.3068 15.8775 10.1401C17.4899 8.93003 16.7268 6.21631 14.6177 6.21631C14.3618 6.21631 14.1134 6.0448 14.0232 5.75812ZM9.3778 7.71631C10.3154 7.71631 11.1246 7.09399 11.4032 6.20819C11.5954 5.59727 12.4001 5.59727 12.5923 6.20819C12.8709 7.09399 13.6802 7.71631 14.6177 7.71631C14.9078 7.71631 15.1243 7.89471 15.2123 8.17451C15.3008 8.45601 15.2285 8.75176 14.9771 8.9404C14.2338 9.49828 13.9341 10.4739 14.2115 11.3561C14.314 11.6818 14.1914 11.9606 13.9764 12.122C13.765 12.2807 13.5002 12.304 13.2576 12.122C12.5081 11.5594 11.4875 11.5594 10.738 12.122C10.4954 12.304 10.2306 12.2807 10.0191 12.122C9.80416 11.9606 9.68156 11.6818 9.784 11.3561C10.0615 10.4739 9.76173 9.49829 9.01839 8.9404C8.76705 8.75176 8.69472 8.45601 8.78326 8.17451C8.87127 7.89471 9.08774 7.71631 9.3778 7.71631Z" fill="#AAEFA4"/>
<path fill-rule="evenodd" clip-rule="evenodd" d="M11.9978 0.25C7.16527 0.25 3.24777 4.16751 3.24777 9C3.24777 10.1746 3.47959 11.2965 3.9004 12.3214C3.60999 12.6576 3.34097 13.1238 2.97879 13.7513L1.15281 16.914C0.927338 17.3044 0.718857 17.6654 0.598658 17.9642C0.480925 18.2569 0.332652 18.7645 0.660313 19.2343C0.992125 19.71 1.52475 19.7382 1.8404 19.7225C2.16 19.7066 2.56628 19.6267 3.00271 19.5407L3.79398 19.3851C4.23264 19.2988 4.4929 19.2491 4.68601 19.2358C4.7742 19.2297 4.82155 19.2338 4.84485 19.2377C4.85556 19.2395 4.86059 19.2412 4.86187 19.2416C4.86296 19.242 4.86354 19.2423 4.86481 19.243C4.86608 19.2437 4.86659 19.2441 4.86746 19.2449C4.8685 19.2458 4.87246 19.2493 4.87937 19.2576C4.89441 19.2759 4.92162 19.3148 4.96047 19.3942C5.04552 19.5681 5.13255 19.8184 5.27716 20.2414L5.53797 21.0044C5.68179 21.4254 5.81569 21.8172 5.96174 22.102C6.10597 22.3832 6.39671 22.8304 6.97462 22.8798C7.5453 22.9287 7.91071 22.5465 8.10533 22.2982C8.30402 22.0447 8.5124 21.6837 8.73776 21.2932L10.5269 18.1944C10.6366 18.0043 10.7367 17.831 10.8265 17.6722C11.2099 17.7235 11.6009 17.75 11.9978 17.75C12.305 17.75 12.6088 17.7341 12.9083 17.7031C12.9935 17.8534 13.0876 18.0163 13.1901 18.194L14.9794 21.2932C15.2048 21.6837 15.4132 22.0447 15.6119 22.2982C15.8065 22.5465 16.1719 22.9287 16.7426 22.8798C17.3205 22.8304 17.6112 22.3832 17.7555 22.102C17.9015 21.8173 18.0354 21.4254 18.1792 21.0045L18.4401 20.2414C18.5847 19.8184 18.6717 19.5681 18.7567 19.3942C18.7956 19.3148 18.8228 19.2759 18.8378 19.2576C18.8387 19.2566 18.8395 19.2556 18.8403 19.2547C18.8457 19.2484 18.8488 19.2456 18.8497 19.2449L18.851 19.2439L18.8524 19.243C18.8537 19.2423 18.8543 19.242 18.8553 19.2416C18.8566 19.2412 18.8617 19.2395 18.8724 19.2377C18.8957 19.2338 18.943 19.2297 19.0312 19.2358C19.2243 19.2491 19.4846 19.2988 19.9232 19.3851L20.7145 19.5407C21.1509 19.6267 21.5572 19.7066 21.8768 19.7225C22.1925 19.7382 22.7251 19.71 23.0569 19.2343C23.3846 18.7645 23.2363 18.2569 23.1186 17.9642C22.9984 17.6654 22.7899 17.3045 22.5645 16.9141L20.7197 13.7188C20.446 13.2443 20.2242 12.8598 19.9973 12.5503C20.4798 11.4645 20.7478 10.2627 20.7478 9C20.7478 4.16751 16.8303 0.25 11.9978 0.25ZM4.74777 9C4.74777 4.99594 7.9937 1.75 11.9978 1.75C16.0018 1.75 19.2478 4.99594 19.2478 9C19.2478 10.1987 18.9574 11.3274 18.4439 12.3217C17.4156 14.3128 15.4927 15.7651 13.2106 16.1491C12.8167 16.2154 12.4115 16.25 11.9978 16.25C11.5139 16.25 11.0419 16.2027 10.5858 16.1127C8.35067 15.6718 6.48194 14.2015 5.49726 12.2143C5.01769 11.2465 4.74777 10.1558 4.74777 9ZM4.23426 14.5768C4.42387 14.2484 4.56793 14.0003 4.68574 13.8075C5.76741 15.4496 7.38769 16.7061 9.29674 17.325L7.46456 20.4984C7.33371 20.7251 7.22947 20.9047 7.14233 21.0475C7.08651 20.8957 7.02141 20.7066 6.94036 20.4696L6.68324 19.7174C6.55645 19.3463 6.43959 19.0044 6.3079 18.7351C6.16251 18.4379 5.95977 18.1431 5.61481 17.944C5.26985 17.7448 4.91319 17.7166 4.5831 17.7393C4.2841 17.7599 3.92953 17.8297 3.54481 17.9054L2.76481 18.0588C2.51896 18.1072 2.32271 18.1453 2.16335 18.1728C2.24343 18.026 2.34685 17.8459 2.4777 17.6193L4.23426 14.5768ZM14.4625 17.3979C16.3878 16.8337 18.0366 15.6263 19.1617 14.0252C19.2525 14.1786 19.3579 14.3602 19.483 14.5768L21.2395 17.6193C21.3704 17.8459 21.4738 18.026 21.5539 18.1728C21.3945 18.1453 21.1983 18.1072 20.9524 18.0588L20.1725 17.9054C19.7878 17.8297 19.4331 17.7599 19.1341 17.7393C18.804 17.7166 18.4474 17.7448 18.1024 17.944C17.7574 18.1431 17.5547 18.4379 17.4093 18.7351C17.2776 19.0044 17.1608 19.3463 17.034 19.7174L16.7768 20.4696C16.6958 20.7066 16.6307 20.8957 16.5749 21.0475C16.4877 20.9047 16.3835 20.7251 16.2526 20.4984L14.4625 17.3979Z" fill="#AAEFA4"/>
</g>
</g>
</svg>
