<svg width="206" height="25" viewBox="0 0 206 25" fill="none" xmlns="http://www.w3.org/2000/svg">
<path d="M19.0508 22.0703C19.0508 22.8809 18.7627 23.5742 18.1865 24.1504C17.6201 24.7168 16.9316 25 16.1211 25C15.3105 25 14.6172 24.7168 14.041 24.1504C13.4746 23.5742 13.1914 22.8809 13.1914 22.0703C13.1914 20.8594 12.7617 19.8242 11.9023 18.9648C11.043 18.1055 10.0078 17.6758 8.79688 17.6758H5.86719V22.0703C5.86719 22.8809 5.5791 23.5742 5.00293 24.1504C4.43652 24.7168 3.74805 25 2.9375 25C2.12695 25 1.43359 24.7168 0.857422 24.1504C0.291016 23.5742 0.0078125 22.8809 0.0078125 22.0703V3.02734C0.0078125 2.2168 0.291016 1.52832 0.857422 0.961914C1.43359 0.385742 2.12695 0.0976562 2.9375 0.0976562C3.74805 0.0976562 4.43652 0.385742 5.00293 0.961914C5.5791 1.52832 5.86719 2.2168 5.86719 3.02734V11.8164H8.79688C10.0078 11.8164 11.043 11.3867 11.9023 10.5273C12.7617 9.66797 13.1914 8.63281 13.1914 7.42188C13.1914 6.61133 13.4746 5.92285 14.041 5.35645C14.6172 4.78027 15.3105 4.49219 16.1211 4.49219C16.9316 4.49219 17.6201 4.78027 18.1865 5.35645C18.7627 5.92285 19.0508 6.61133 19.0508 7.42188C19.0508 10.2539 18.0498 12.6709 16.0479 14.6729L15.9746 14.7461L16.0479 14.8193C18.0498 16.8213 19.0508 19.2383 19.0508 22.0703ZM42.984 22.0703C42.984 22.8809 42.6959 23.5742 42.1197 24.1504C41.5533 24.7168 40.8648 25 40.0543 25C39.2437 25 38.5504 24.7168 37.9742 24.1504C37.4078 23.5742 37.1246 22.8809 37.1246 22.0703V14.7461C37.1246 13.5352 36.6949 12.5 35.8355 11.6406C34.9762 10.7812 33.941 10.3516 32.7301 10.3516C31.5191 10.3516 30.484 10.7812 29.6246 11.6406C28.7652 12.5 28.3355 13.5352 28.3355 14.7461V22.0703C28.3355 22.8809 28.0475 23.5742 27.4713 24.1504C26.9049 24.7168 26.2164 25 25.4059 25C24.5953 25 23.902 24.7168 23.3258 24.1504C22.7594 23.5742 22.4762 22.8809 22.4762 22.0703V14.7461C22.4762 11.9141 23.4771 9.49707 25.4791 7.49512C27.4811 5.49316 29.898 4.49219 32.7301 4.49219C35.5621 4.49219 37.9791 5.49316 39.9811 7.49512C41.983 9.49707 42.984 11.9141 42.984 14.7461V22.0703ZM56.634 19.1406C57.8449 19.1406 58.8801 18.7109 59.7395 17.8516C60.5988 16.9922 61.0285 15.957 61.0285 14.7461C61.0285 13.5352 60.5988 12.5 59.7395 11.6406C58.8801 10.7812 57.8449 10.3516 56.634 10.3516C55.423 10.3516 54.3879 10.7812 53.5285 11.6406C52.6691 12.5 52.2395 13.5352 52.2395 14.7461C52.2395 15.957 52.6691 16.9922 53.5285 17.8516C54.3879 18.7109 55.423 19.1406 56.634 19.1406ZM56.634 25C53.802 25 51.385 23.999 49.383 21.9971C47.3811 19.9951 46.3801 17.5781 46.3801 14.7461C46.3801 11.9141 47.3811 9.49707 49.383 7.49512C51.385 5.49316 53.802 4.49219 56.634 4.49219C59.466 4.49219 61.883 5.49316 63.885 7.49512C65.8869 9.49707 66.8879 11.9141 66.8879 14.7461C66.8879 17.5781 65.8869 19.9951 63.885 21.9971C61.883 23.999 59.466 25 56.634 25ZM70.284 7.42188C70.284 6.61133 70.5672 5.92285 71.1336 5.35645C71.7098 4.78027 72.4031 4.49219 73.2137 4.49219C74.0242 4.49219 74.7127 4.78027 75.2791 5.35645C75.8553 5.92285 76.1434 6.61133 76.1434 7.42188V14.7461C76.1434 15.957 76.573 16.9922 77.4324 17.8516C78.2918 18.7109 79.327 19.1406 80.5379 19.1406C81.7488 19.1406 82.784 18.7109 83.6434 17.8516C84.5027 16.9922 84.9324 15.957 84.9324 14.7461V7.42188C84.9324 6.61133 85.2156 5.92285 85.782 5.35645C86.3582 4.78027 87.0516 4.49219 87.8621 4.49219C88.6727 4.49219 89.3611 4.78027 89.9275 5.35645C90.5037 5.92285 90.7918 6.61133 90.7918 7.42188V14.7461C90.7918 15.957 91.2215 16.9922 92.0809 17.8516C92.9402 18.7109 93.9754 19.1406 95.1863 19.1406C96.3973 19.1406 97.4324 18.7109 98.2918 17.8516C99.1512 16.9922 99.5809 15.957 99.5809 14.7461V7.42188C99.5809 6.61133 99.8641 5.92285 100.43 5.35645C101.007 4.78027 101.7 4.49219 102.511 4.49219C103.321 4.49219 104.01 4.78027 104.576 5.35645C105.152 5.92285 105.44 6.61133 105.44 7.42188V14.7461C105.44 17.5781 104.439 19.9951 102.437 21.9971C100.435 23.999 98.0184 25 95.1863 25C92.3543 25 89.9373 23.999 87.9353 21.9971L87.8621 21.9238L87.7889 21.9971C85.7869 23.999 83.3699 25 80.5379 25C77.7059 25 75.2889 23.999 73.2869 21.9971C71.285 19.9951 70.284 17.5781 70.284 14.7461V7.42188ZM129.4 10.3516C128.189 10.3516 127.154 10.7812 126.295 11.6406C125.436 12.5 125.006 13.5352 125.006 14.7461C125.006 15.957 125.436 16.9922 126.295 17.8516C127.154 18.7109 128.189 19.1406 129.4 19.1406C130.611 19.1406 131.646 18.7109 132.506 17.8516C133.365 16.9922 133.795 15.957 133.795 14.7461C133.795 13.5352 133.365 12.5 132.506 11.6406C131.646 10.7812 130.611 10.3516 129.4 10.3516ZM119.146 3.02734C119.146 2.2168 119.43 1.52832 119.996 0.961914C120.572 0.385742 121.266 0.0976562 122.076 0.0976562C122.887 0.0976562 123.575 0.385742 124.142 0.961914C124.718 1.52832 125.006 2.2168 125.006 3.02734V5.44434C126.334 4.80957 127.799 4.49219 129.4 4.49219C132.232 4.49219 134.649 5.49316 136.651 7.49512C138.653 9.49707 139.654 11.9141 139.654 14.7461C139.654 17.5781 138.653 19.9951 136.651 21.9971C134.649 23.999 132.232 25 129.4 25C127.584 25 125.938 24.5898 124.464 23.7695C124.376 23.8965 124.273 24.0186 124.156 24.1357C123.58 24.7119 122.887 25 122.076 25C121.266 25 120.572 24.7168 119.996 24.1504C119.43 23.5742 119.146 22.8809 119.146 22.0703V3.02734ZM153.216 19.1406C154.427 19.1406 155.462 18.7109 156.322 17.8516C157.181 16.9922 157.611 15.957 157.611 14.7461C157.611 13.5352 157.181 12.5 156.322 11.6406C155.462 10.7812 154.427 10.3516 153.216 10.3516C152.005 10.3516 150.97 10.7812 150.111 11.6406C149.252 12.5 148.822 13.5352 148.822 14.7461C148.822 15.957 149.252 16.9922 150.111 17.8516C150.97 18.7109 152.005 19.1406 153.216 19.1406ZM163.47 22.0703C163.47 22.8809 163.182 23.5742 162.606 24.1504C162.04 24.7168 161.351 25 160.541 25C159.73 25 159.042 24.7119 158.475 24.1357C158.348 24.0186 158.241 23.8965 158.153 23.7695C156.678 24.5898 155.033 25 153.216 25C150.384 25 147.967 23.999 145.965 21.9971C143.963 19.9951 142.962 17.5781 142.962 14.7461C142.962 11.9141 143.963 9.49707 145.965 7.49512C147.967 5.49316 150.384 4.49219 153.216 4.49219C155.033 4.49219 156.678 4.90234 158.153 5.72266C158.241 5.5957 158.348 5.46875 158.475 5.3418C159.042 4.77539 159.73 4.49219 160.541 4.49219C161.351 4.49219 162.04 4.78027 162.606 5.35645C163.182 5.92285 163.47 6.61133 163.47 7.42188V22.0703ZM181.984 4.49219C182.794 4.49219 183.483 4.78027 184.049 5.35645C184.625 5.92285 184.913 6.61133 184.913 7.42188C184.913 8.23242 184.625 8.92578 184.049 9.50195C183.483 10.0684 182.794 10.3516 181.984 10.3516H173.927C173.439 10.3516 173.195 10.5957 173.195 11.084C173.195 11.5723 173.439 11.8164 173.927 11.8164H178.321C182.716 11.8164 184.913 14.0137 184.913 18.4082C184.913 22.8027 182.716 25 178.321 25H170.265C169.454 25 168.761 24.7168 168.185 24.1504C167.618 23.5742 167.335 22.8809 167.335 22.0703C167.335 21.2598 167.618 20.5713 168.185 20.0049C168.761 19.4287 169.454 19.1406 170.265 19.1406H178.321C178.81 19.1406 179.054 18.8965 179.054 18.4082C179.054 17.9199 178.81 17.6758 178.321 17.6758H173.927C169.532 17.6758 167.335 15.4785 167.335 11.084C167.335 6.68945 169.532 4.49219 173.927 4.49219H181.984ZM202.46 4.49219C203.27 4.49219 203.959 4.78027 204.525 5.35645C205.101 5.92285 205.389 6.61133 205.389 7.42188C205.389 8.23242 205.101 8.92578 204.525 9.50195C203.959 10.0684 203.27 10.3516 202.46 10.3516H198.065C196.854 10.3516 195.819 10.7812 194.96 11.6406C194.901 11.6992 194.847 11.7578 194.799 11.8164H202.46C203.27 11.8164 203.959 12.1045 204.525 12.6807C205.101 13.2471 205.389 13.9355 205.389 14.7461C205.389 15.5566 205.101 16.25 204.525 16.8262C203.959 17.3926 203.27 17.6758 202.46 17.6758H194.799C194.847 17.7344 194.901 17.793 194.96 17.8516C195.819 18.7109 196.854 19.1406 198.065 19.1406H202.46C203.27 19.1406 203.959 19.4287 204.525 20.0049C205.101 20.5713 205.389 21.2598 205.389 22.0703C205.389 22.8809 205.101 23.5742 204.525 24.1504C203.959 24.7168 203.27 25 202.46 25H198.065C195.233 25 192.816 23.999 190.814 21.9971C188.812 19.9951 187.811 17.5781 187.811 14.7461C187.811 11.9141 188.812 9.49707 190.814 7.49512C192.816 5.49316 195.233 4.49219 198.065 4.49219H202.46Z" fill="black"/>
</svg>
